<svg xmlns="http://www.w3.org/2000/svg" version="1.1" xmlns:xlink="http://www.w3.org/1999/xlink" xmlns:svgjs="http://svgjs.com/svgjs" width="41" height="32"><svg version="1.1" xmlns="http://www.w3.org/2000/svg" width="41" height="32" viewBox="0 0 41 32">
<title>favicon</title>
<path fill="#5f83b3" d="M15.776 8.571v8.269q0 1.213-0.465 2.252-0.465 1.030-1.477 1.668-1.003 0.629-2.644 0.629-1.039 0-1.924-0.301t-1.659-0.857l0.866-1.349q0.748 0.483 1.377 0.666 0.638 0.173 1.258 0.173 1.185 0 1.869-0.757 0.693-0.757 0.693-2.17v-6.601h-3.783v-1.623z"></path>
<path fill="#5f83b3" d="M30.308 20.095q0 1.394-0.611 2.459-0.602 1.065-1.747 1.666-1.135 0.601-2.746 0.601-1.64 0-2.863-0.567t-2.067-1.53l1.232-1.609q0.708 0.771 1.611 1.201t2.077 0.431q1.135 0 1.951-0.623 0.825-0.635 0.825-1.904 0-0.68-0.243-1.156-0.243-0.487-0.844-0.861-0.592-0.385-1.659-0.759-2.125-0.737-3.222-1.779t-1.097-2.878q0-1.269 0.592-2.221 0.602-0.952 1.64-1.473 1.048-0.533 2.368-0.533 1.456 0 2.542 0.499 1.087 0.487 1.941 1.383l-1.184 1.564q-0.708-0.714-1.524-1.043-0.805-0.34-1.64-0.34-1.029 0-1.727 0.51-0.699 0.499-0.699 1.507 0 0.612 0.281 1.043 0.291 0.419 0.97 0.793 0.689 0.363 1.883 0.782 1.126 0.385 2.018 0.952 0.902 0.567 1.417 1.496 0.524 0.918 0.524 2.391z"></path>
<path fill="#5f83b3" d="M7.465 23.353h8.849v1.514h-8.849z"></path>
</svg><style>@media (prefers-color-scheme: light) { :root { filter: none; } }
</style></svg>
