<?xml version="1.0" encoding="UTF-8" standalone="no"?>
<!-- Created with Inkscape (http://www.inkscape.org/) -->

<svg
   fill="var(--primary-light)"
   width="11in"
   height="8.5in"
   viewBox="0 0 1056 816"
   version="1.1"
   id="svg5"
   xmlns="http://www.w3.org/2000/svg"
   xmlns:svg="http://www.w3.org/2000/svg">
  <defs
     id="defs2">
    <linearGradient
       id="linearGradient1099">
      <stop
         offset="0"
         id="stop1097" />
    </linearGradient>
  </defs>
  <g
     id="layer1">
    <g
       id="g1336">
      <rect
         id="rect364"
         width="891.47601"
         height="667.77563"
         x="77.245079"
         y="79.552971" />
      <g
         id="g3269">
        <g
           id="g5011">
          <g
             aria-label="J"
             id="text113">
            <path
               d="m 402.29259,218.55069 v 210.85797 q 0,30.91963 -11.8564,57.42218 -11.85641,26.27007 -37.66152,42.54356 -25.57263,16.04101 -67.41875,16.04101 -26.50255,0 -49.05296,-7.67179 -22.55041,-7.67179 -42.31108,-21.85297 l 22.08546,-34.40682 q 19.06323,12.32136 35.10425,16.97093 16.27349,4.41709 32.08202,4.41709 30.2222,0 47.65809,-19.29571 17.66836,-19.29571 17.66836,-55.32987 V 259.93186 H 252.1115 v -41.38117 z"
               id="path4999" />
          </g>
          <g
             aria-label="S"
             transform="scale(0.92537681,1.0806409)"
             id="text113-8"
             style="font-size:521.449px">
            <path
               d="m 835.18276,474.1875 q 0,32.8914 -16.84681,58.02791 -16.5794,25.13652 -48.13375,39.30923 -31.28694,14.17272 -75.67695,14.17272 -45.19225,0 -78.88587,-13.37049 -33.69363,-13.37049 -56.95828,-36.10031 l 33.96104,-37.97218 q 19.52091,18.18386 44.39001,28.34543 24.86911,10.16157 57.22569,10.16157 31.28693,0 53.74935,-14.70754 22.72983,-14.97494 22.72983,-44.92483 0,-16.04459 -6.68524,-27.2758 -6.68525,-11.49861 -23.26465,-20.32314 -16.31199,-9.09193 -45.72706,-17.91645 -58.56274,-17.38163 -88.78004,-41.98332 -30.21729,-24.6017 -30.21729,-67.92208 0,-29.94989 16.31199,-52.4123 16.5794,-22.46242 45.19224,-34.76327 28.88025,-12.56826 65.24798,-12.56826 40.11146,0 70.06135,11.76603 29.94989,11.49862 53.48194,32.62399 l -32.62398,36.90254 q -19.52091,-16.84681 -41.98333,-24.60169 -22.19501,-8.02229 -45.19225,-8.02229 -28.34543,0 -47.59893,12.03343 -19.2535,11.76603 -19.2535,35.5655 0,14.44012 7.75488,24.60169 8.0223,9.89416 26.74098,18.71868 18.98609,8.55712 51.87748,18.45128 31.01953,9.09193 55.62123,22.46241 24.8691,13.37049 39.04182,35.29809 14.44012,21.66019 14.44012,56.42345 z"
               id="path5002" />
          </g>
          <path
             id="rect1289"
             d="m 190.34528,595.50122 h 225.64305 v 38.59741 H 190.34528 Z" />
        </g>
      </g>
    </g>
  </g>
</svg>
